<svg width="50" height="50" viewBox="0 0 50 50" fill="none" xmlns="http://www.w3.org/2000/svg" class="relative"><path d="M25 5L27.5 3L30 5L32.5 3L35 5L32.5 7L30 5L27.5 7L25 5Z" fill="#D4AF37" class="drop-shadow-lg"></path><path d="M20 20C20 17 20 15 22 15C24 15 24 17 24 20V30C24 33 24 35 22 35C20 35 20 33 20 30V20Z" fill="#D4AF37" opacity="0.8"></path><path d="M12 23C12 21 12 20 14 20C16 20 16 21 16 23V27C16 29 16 30 14 30C12 30 12 29 12 27V23Z" fill="#D4AF37" opacity="0.6"></path><path d="M4 25C4 24 4 23.5 6 23.5C8 23.5 8 24 8 25V25C8 26 8 26.5 6 26.5C4 26.5 4 26 4 25Z" fill="#D4AF37" opacity="0.4"></path><path d="M28 18C28 16 28 15 30 15C32 15 32 16 32 18V32C32 34 32 35 30 35C28 35 28 34 28 32V18Z" fill="#D4AF37" opacity="0.8"></path><path d="M36 22C36 20.5 36 20 38 20C40 20 40 20.5 40 22V28C40 29.5 40 30 38 30C36 30 36 29.5 36 28V22Z" fill="#D4AF37" opacity="0.6"></path><path d="M44 24.5C44 23.8 44 23.5 46 23.5C48 23.5 48 23.8 48 24.5V25.5C48 26.2 48 26.5 46 26.5C44 26.5 44 26.2 44 25.5V24.5Z" fill="#D4AF37" opacity="0.4"></path><circle cx="25" cy="25" r="18" stroke="#D4AF37" stroke-width="1.5" fill="none" opacity="0.3"></circle></svg>